<?xml version="1.0" standalone="no"?>
<!DOCTYPE svg PUBLIC "-//W3C//DTD SVG 20010904//EN"
 "http://www.w3.org/TR/2001/REC-SVG-20010904/DTD/svg10.dtd">
<svg version="1.0" xmlns="http://www.w3.org/2000/svg"
 width="260.000000pt" height="260.000000pt" viewBox="0 0 260.000000 260.000000"
 preserveAspectRatio="xMidYMid meet">
<metadata>
Created by potrace 1.11, written by Peter Selinger 2001-2013
</metadata>
<g transform="translate(0.000000,260.000000) scale(0.100000,-0.100000)"
fill="#000000" stroke="none">
<path d="M0 1300 l0 -1300 1300 0 1300 0 0 1300 0 1300 -1300 0 -1300 0 0
-1300z m2019 1042 c99 -49 105 -177 12 -239 -110 -74 -253 51 -196 171 36 74
113 103 184 68z m-1068 -96 c37 -8 90 -24 117 -36 l51 -22 -2 -170 c-1 -158
-2 -169 -17 -147 -55 83 -130 129 -225 137 -81 6 -149 -16 -208 -69 -117 -103
-131 -274 -32 -395 54 -66 120 -93 251 -104 173 -14 278 -62 395 -179 340
-341 167 -916 -307 -1016 -300 -64 -604 114 -701 410 -21 65 -26 100 -27 187
0 59 3 110 6 114 4 3 65 -15 136 -41 l129 -47 5 -62 c10 -112 82 -216 185
-267 70 -34 188 -38 264 -10 224 85 284 366 118 555 -59 67 -142 104 -259 116
-108 10 -156 22 -220 55 -162 83 -274 256 -287 445 -18 251 166 490 417 544
84 19 130 19 211 2z m396 -30 l33 -36 0 -271 c0 -263 -1 -273 -25 -346 -25
-74 -76 -163 -112 -196 -17 -14 -25 -12 -108 29 -50 25 -110 48 -133 51 -23 3
-42 9 -42 12 0 4 16 15 36 26 53 28 109 97 128 158 14 43 16 94 16 291 -1 262
0 267 63 307 48 30 103 20 144 -25z m683 -245 c50 -36 50 -29 50 -628 l0 -563
135 0 135 0 0 -95 0 -95 -135 0 -135 0 0 -135 0 -135 -120 0 -120 0 0 135 0
135 -200 0 c-110 0 -200 3 -200 8 0 4 9 36 20 70 11 35 20 75 20 88 l0 24 180
0 180 0 0 368 c-1 332 -2 365 -16 347 -8 -11 -92 -127 -186 -258 l-171 -238
-26 68 c-15 37 -39 86 -54 107 -14 22 -23 44 -20 50 4 6 32 47 63 91 177 249
304 432 363 520 37 55 74 110 82 122 29 43 104 49 155 14z m-1492 -699 c70
-48 147 -80 206 -88 50 -7 53 -18 6 -28 -83 -16 -193 -127 -220 -222 l-12 -41
-122 44 c-66 25 -123 47 -125 49 -10 10 32 116 69 173 36 55 121 151 135 151
3 0 31 -17 63 -38z"/>
</g>
</svg>
